<svg xmlns="http://www.w3.org/2000/svg" version="1.1" xmlns:xlink="http://www.w3.org/1999/xlink" xmlns:svgjs="http://svgjs.dev/svgjs" width="1000" height="376" viewBox="0 0 1000 376"><g transform="matrix(1,0,0,1,-0.6060606060606233,-0.2797949370010997)"><svg viewBox="0 0 396 149" data-background-color="#ffffff" preserveAspectRatio="xMidYMid meet" height="376" width="1000" xmlns="http://www.w3.org/2000/svg" xmlns:xlink="http://www.w3.org/1999/xlink"><g id="tight-bounds" transform="matrix(1,0,0,1,0.2400000000000091,0.11087618514139308)"><svg viewBox="0 0 395.52 148.7782476297172" height="148.7782476297172" width="395.52"><g><svg viewBox="0 0 657.1696169142856 247.2" height="148.7782476297172" width="395.52"><g><svg viewBox="0 0 370.09371428571427 247.2" height="247.2" width="370.09371428571427"><g id="textblocktransform"><svg viewBox="0 0 370.09371428571427 247.2" height="247.2" width="370.09371428571427" id="textblock"><g><svg viewBox="0 0 370.09371428571427 247.2" height="247.2" width="370.09371428571427"><g transform="matrix(1,0,0,1,0,0)"><svg width="370.09371428571427" viewBox="3.5999999046325684 -35 52.400001525878906 35" height="247.2" data-palette-color="#89939e"><path d="M30.1 0L26.45 0 6.5-30.5 6.75 0 3.6 0 3.6-35 7.25-35 27.15-4.5 26.95-35 30.1-35 30.1 0ZM56-3L55.75 0 36.8 0 36.8-35 40.2-35 40.2-3 56-3Z" opacity="1" transform="matrix(1,0,0,1,0,0)" fill="#89939e" class="wordmark-text-0" data-fill-palette-color="primary" id="text-0"></path></svg></g></svg></g></svg></g></svg></g><g transform="matrix(1,0,0,1,428.45170148571424,9.241042285714286)"><svg viewBox="0 0 228.71791542857142 228.71791542857142" height="228.71791542857142" width="228.71791542857142"><g data-palette-color="#89939e"><rect width="62.516230217142855" height="228.71791542857142" fill="#89939e" stroke="transparent" data-fill-palette-color="accent" x="0" fill-opacity="1"></rect><rect width="62.516230217142855" height="228.71791542857142" fill="#89939e" stroke="transparent" data-fill-palette-color="accent" x="76.23930514285713" fill-opacity="0.75"></rect><rect width="62.516230217142855" height="228.71791542857142" fill="#89939e" stroke="transparent" data-fill-palette-color="accent" x="152.47861028571427" fill-opacity="0.5"></rect></g></svg></g></svg></g><defs></defs></svg><rect width="395.52" height="148.7782476297172" fill="none" stroke="none" visibility="hidden"></rect></g></svg></g></svg>